<?xml version="1.0" encoding="UTF-8"?>
<!DOCTYPE svg PUBLIC "-//W3C//DTD SVG 1.1//EN" "http://www.w3.org/Graphics/SVG/1.1/DTD/svg11.dtd">
<!-- Creator: CorelDRAW 2019 (64 Bit) -->
<svg xmlns="http://www.w3.org/2000/svg" xml:space="preserve" width="768px" height="79px" version="1.1" shape-rendering="geometricPrecision" text-rendering="geometricPrecision" image-rendering="optimizeQuality" fill-rule="evenodd" clip-rule="evenodd"
viewBox="0 0 753.07 77.32"
 xmlns:xlink="http://www.w3.org/1999/xlink">
 <g id="Camada_x0020_1">
  <metadata id="CorelCorpID_0Corel-Layer"/>
  <g id="logo">
   <g>
    <path id="assessment" fill="#212FFC" d="M353.2 23.08l0 0c1.37,0 2.74,0.14 4.11,0.43 5.05,1.01 8.59,3.61 10.68,5.63l0.07 0.07 0.07 0.07c0.94,0.87 1.73,1.81 2.45,2.82 0.8,1.15 1.52,2.38 2.02,3.75 0,0.14 0.07,0.21 0.07,0.29 0,0.14 -0.07,0.21 -0.07,0.36l-10.82 10.89 -10.17 10.24 -3.31 3.32 0 3.82c-1.16,-0.29 -2.38,-0.65 -3.54,-1.15 -1.95,-0.87 -3.75,-2.02 -5.34,-3.39 -2.3,-1.95 -4.11,-4.4 -5.41,-7.22 -1.29,-2.81 -1.94,-5.84 -1.94,-8.87 0,-4.47 1.44,-8 2.67,-10.24 1.22,-2.24 2.88,-4.18 4.76,-5.84 2.3,-2.02 5.19,-3.46 8.15,-4.33 1.87,-0.36 3.68,-0.65 5.55,-0.65l0 0zm-142.95 20.99l0 32.82 -12.48 0c-0.22,0 -0.36,-0.15 -0.36,-0.36l0 -6.5 0 -25.96c0,-1.44 -0.22,-8.15 -5.55,-13.7 -0.8,-0.87 -6.06,-6.21 -14.36,-6.21 -7.28,0 -13.85,4.04 -17.31,9.81 -0.58,0.94 -2.67,4.76 -2.59,10.1 0.07,8.58 5.77,14.06 6.78,15 5.69,5.27 12.55,5.56 16.66,5.77 1.8,0.07 3.6,0 5.33,-0.21 0.87,-0.08 1.74,-0.22 2.6,-0.36 0.72,-0.15 1.3,0.36 1.3,1.08 0,3.82 0,7.64 0,11.47 0,0.43 -6.56,0.5 -7.14,0.5 -8.66,0 -17.53,-1.51 -24.67,-6.56 -5.05,-3.54 -8.94,-8.59 -11.32,-14.28 -3.97,-9.74 -3.46,-22.15 3.89,-32.03 12.05,-16.23 38.08,-16.95 51.28,-1.87 5.2,5.84 7.94,13.63 7.94,21.49zm496.58 32.96l0 -32.82c0,-11.03 -8.94,-19.98 -19.9,-19.98 -10.97,0 -19.91,8.95 -19.91,19.98l0 32.82 -12.84 0 0 -15.79 -0.07 0 0 -49.77 12.48 0 0 7.06c5.6,-4.46 12.7,-7.13 20.41,-7.13 18.1,0 32.82,14.71 32.82,32.81l0 32.82 -12.99 0zm-212.48 -0.07l0 -15.8 0 -24.01 0 -25.32 12.33 0 0 3.57c3.8,-2.27 8.24,-3.57 12.99,-3.57 7.5,0 14.28,3.32 18.97,8.51 4.61,-5.19 11.39,-8.51 18.97,-8.51 13.99,0 25.31,11.32 25.31,25.32l0 39.81 -12.76 0 0 -39.81c0,-6.93 -5.63,-12.55 -12.55,-12.55 -6.93,0 -12.55,5.62 -12.55,12.55l0 39.81 -12.77 0 0 -39.81c0,-6.93 -5.63,-12.55 -12.55,-12.55 -6.92,0 -12.55,5.62 -12.55,12.55l0 39.81 -12.84 0zm-141.15 -65.28c-3.68,0 -6.63,0.65 -8.51,1.16 -2.88,0.79 -7.79,2.52 -12.55,6.63 -3.75,3.18 -6.06,6.64 -7.36,8.95 -1.44,2.67 -4.11,8.22 -4.11,15.79 0,6.21 1.73,11.04 2.96,13.64 1.23,2.74 3.75,7.06 8.29,11.03 3.11,2.67 6.14,4.33 8.44,5.34 2.09,0.86 4.76,1.73 7.86,2.23 2.53,0.44 4.91,0.65 7,0.65 1.66,0 3.1,-0.07 4.4,-0.21l0 -11.18c7.29,-7.29 14.5,-14.57 21.78,-21.93 0.72,-1.01 2.38,-3.46 2.6,-6.92 0.14,-2.09 -0.29,-3.75 -0.65,-4.84 -0.72,-1.8 -1.73,-4.03 -3.39,-6.42 -1.37,-1.94 -2.74,-3.46 -3.97,-4.61 -2.23,-2.16 -7.71,-6.93 -16.37,-8.66 -2.31,-0.43 -4.47,-0.65 -6.42,-0.65l0 0zm99.46 43.21l0 1.15c0,3.03 4.69,9.02 13.35,9.02 9.3,0 13.34,-5.27 13.34,-9.02 0,-4.54 -18.25,-5.98 -21.71,-6.71 -8.66,-1.87 -16.95,-6.13 -16.95,-16.66 0,-13.34 12.98,-20.99 25.39,-20.99 11.68,0 25.39,8.88 25.39,20.99l0 1.16 -11.98 0 0 -1.16c0,-2.88 -5.33,-9.01 -13.34,-9.01 -8.94,0 -13.34,5.12 -13.34,9.01 0,5.48 17.67,6.49 21.63,7.36 8.44,1.73 17.03,5.63 17.03,16.01 0,12.91 -12.27,20.99 -25.39,20.99 -12.7,0 -25.39,-9.02 -25.39,-20.99l0 -1.15 11.97 0zm-53.66 0l0 1.15c0,3.03 4.69,9.02 13.34,9.02 9.31,0 13.35,-5.27 13.35,-9.02 0,-4.54 -18.25,-5.98 -21.71,-6.71 -8.66,-1.87 -16.95,-6.13 -16.95,-16.66 0,-13.34 12.98,-20.99 25.39,-20.99 11.68,0 25.38,8.88 25.38,20.99l0 1.16 -11.97 0 0 -1.16c0,-2.88 -5.34,-9.01 -13.34,-9.01 -8.95,0 -13.34,5.12 -13.34,9.01 0,5.48 17.67,6.49 21.63,7.36 8.44,1.73 17.02,5.63 17.02,16.01 0,12.91 -12.26,20.99 -25.38,20.99 -12.7,0 -25.39,-9.02 -25.39,-20.99l0 -1.15 11.97 0zm-120.02 0l0 1.15c0,3.03 4.69,9.02 13.35,9.02 9.3,0 13.34,-5.27 13.34,-9.02 0,-4.54 -18.25,-5.98 -21.71,-6.71 -8.66,-1.87 -16.95,-6.13 -16.95,-16.66 0,-13.34 12.98,-20.99 25.39,-20.99 11.68,0 25.39,8.88 25.39,20.99l0 1.16 -11.98 0 0 -1.16c0,-2.88 -5.33,-9.01 -13.34,-9.01 -8.94,0 -13.34,5.12 -13.34,9.01 0,5.48 17.67,6.49 21.64,7.36 8.43,1.73 17.02,5.63 17.02,16.01 0,12.91 -12.26,20.99 -25.39,20.99 -12.7,0 -25.39,-9.02 -25.39,-20.99l0 -1.15 11.97 0zm-53.73 0l0 1.15c0,3.03 4.69,9.02 13.34,9.02 9.31,0 13.35,-5.27 13.35,-9.02 0,-4.54 -18.25,-5.98 -21.71,-6.71 -8.66,-1.87 -16.95,-6.13 -16.95,-16.66 0,-13.34 12.98,-20.99 25.38,-20.99 11.69,0 25.39,8.88 25.39,20.99l0 1.16 -11.97 0 0 -1.16c0,-2.88 -5.34,-9.01 -13.34,-9.01 -8.95,0 -13.35,5.12 -13.35,9.01 0,5.48 17.67,6.49 21.64,7.36 8.44,1.73 17.02,5.63 17.02,16.01 0,12.91 -12.26,20.99 -25.38,20.99 -12.7,0 -25.39,-9.02 -25.39,-20.99l0 -1.15 11.97 0zm527.82 -27.12l-18.39 0 0 24.67c0,6.99 5.62,12.62 12.62,12.62l5.77 0 0 11.97 -5.77 0c-13.63,0 -24.6,-11.03 -24.6,-24.59l0 -52.44 11.98 0 0 15.8 18.39 0 0 11.97zm-154.21 11.18l39.31 0c-2.38,-8.58 -10.24,-14.93 -19.62,-14.93 -9.45,0 -17.31,6.35 -19.69,14.93zm38.81 12.33l-38.38 0c2.82,7.86 10.32,13.49 19.19,13.49 6.71,0 12.69,-3.25 16.44,-8.29l13.93 0c-4.76,12.04 -16.59,20.62 -30.37,20.62 -18.03,0 -32.67,-14.64 -32.67,-32.67 0,-18.03 14.64,-32.67 32.67,-32.67 18.03,0 32.67,14.64 32.67,32.67 0,2.38 -0.21,4.62 -0.72,6.85l-12.76 0z"/>
   </g>
   <path id="cis" fill="#FA5A53" d="M67.94 77.03l0 -65.27 13.99 0 0 65.27 -13.99 0zm316.06 -11.9l-17.89 0 0 11.61 11.04 0c3.82,0 6.85,-3.1 6.85,-6.85l0 -4.76zm-331.71 -26.18l12.7 0c-3.11,-14.86 -16.52,-27.27 -32.32,-27.27 -18.03,0 -32.67,14.65 -32.67,32.68 0,18.03 14.64,32.67 32.67,32.67 13.78,0 25.61,-8.51 30.37,-20.63l-13.92 0c-2.53,3.46 -6.21,6.13 -10.39,7.43 -1.22,0.36 -3.32,0.94 -6.06,0.94 -7.5,0 -12.55,-4.26 -13.41,-5.05 -3.46,-3.03 -5.12,-6.56 -5.77,-8.51 -0.51,-1.44 -1.08,-3.46 -1.16,-5.99 -0.14,-2.66 0.29,-4.83 0.72,-6.34 2.46,-8.8 10.53,-14.93 19.62,-14.93 9.09,0 17.24,6.2 19.62,15zm44.65 15.94l0 1.15c0,2.96 4.69,9.02 13.34,9.02 9.23,0 13.34,-5.27 13.34,-9.02 0,-4.54 -18.24,-5.98 -21.71,-6.71 -8.58,-1.87 -16.95,-6.13 -16.95,-16.66 0,-13.34 12.99,-20.99 25.32,-20.99 11.68,0 25.32,8.88 25.32,20.99l0 1.16 -11.98 0 0 -1.16c0,-2.88 -5.33,-9.01 -13.34,-9.01 -8.94,0 -13.34,5.12 -13.34,9.01 0,5.41 17.67,6.49 21.63,7.36 8.44,1.73 17.03,5.63 17.03,16.01 0,12.84 -12.26,20.99 -25.32,20.99 -12.62,0 -25.32,-9.02 -25.32,-20.99l0 -1.15 11.98 0z"/>
  </g>
 </g>
</svg>
