<?xml version="1.0" encoding="UTF-8"?>
<!DOCTYPE svg PUBLIC "-//W3C//DTD SVG 1.1//EN" "http://www.w3.org/Graphics/SVG/1.1/DTD/svg11.dtd">
<!-- Creator: CorelDRAW 2019 (64 Bit) -->
<svg xmlns="http://www.w3.org/2000/svg" xml:space="preserve" width="64px" height="64px" version="1.1" shape-rendering="geometricPrecision" text-rendering="geometricPrecision" image-rendering="optimizeQuality" fill-rule="evenodd" clip-rule="evenodd"
viewBox="0 0 15.11 15.11"
 xmlns:xlink="http://www.w3.org/1999/xlink">
 <g id="Camada_x0020_1">
  <metadata id="CorelCorpID_0Corel-Layer"/>
  <g id="_2236614770864">
   <g>
    <path id="ponto" fill="#FA5A53" d="M14 11.78l-3.64 0 0 2.37 2.25 0c0.77,0 1.39,-0.64 1.39,-1.4l0 -0.97z"/>
    <path id="letra" fill="#0B2F71" d="M5.99 1.13c-1.7,0.46 -3.2,1.62 -4.05,3.17 -1.02,1.84 -1.12,4.08 -0.24,6 0.68,1.46 1.93,2.7 3.41,3.33 1.16,0.5 2.66,0.69 3.93,0.54l0 -2.27c1.48,-1.49 2.95,-2.97 4.43,-4.47 0.15,-0.2 0.49,-0.7 0.53,-1.41 0.03,-0.43 -0.05,-0.77 -0.13,-0.98 -0.32,-0.86 -0.84,-1.62 -1.5,-2.25 -0.46,-0.44 -1.57,-1.41 -3.33,-1.77 -1.02,-0.2 -2.05,-0.16 -3.05,0.11zm5.28 3.92c0.16,0.23 0.31,0.49 0.41,0.76 0,0.05 0,0.09 0,0.14l-4.95 4.98 0 0.78c-0.71,-0.18 -1.25,-0.45 -1.81,-0.93 -0.95,-0.81 -1.5,-2.03 -1.5,-3.28 0,-1.27 0.56,-2.44 1.52,-3.27 1.21,-1.07 2.92,-1.29 4.41,-0.69 0.76,0.31 1.44,0.83 1.92,1.51z"/>
   </g>
   <rect fill="none" width="15.11" height="15.11"/>
  </g>
 </g>
</svg>
