<?xml version="1.0" encoding="UTF-8"?>
<!DOCTYPE svg PUBLIC "-//W3C//DTD SVG 1.1//EN" "http://www.w3.org/Graphics/SVG/1.1/DTD/svg11.dtd">
<!-- Creator: CorelDRAW -->
<svg xmlns="http://www.w3.org/2000/svg" xml:space="preserve" width="132.98mm" height="13.6524mm" version="1.1" style="shape-rendering:geometricPrecision; text-rendering:geometricPrecision; image-rendering:optimizeQuality; fill-rule:evenodd; clip-rule:evenodd"
viewBox="0 0 8009.11 822.26"
 xmlns:xlink="http://www.w3.org/1999/xlink"
 xmlns:xodm="http://www.corel.com/coreldraw/odm/2003">
 <defs>
  <style type="text/css">
   <![CDATA[
    .fil1 {fill:#FA5A53;fill-rule:nonzero}
    .fil0 {fill:white;fill-rule:nonzero}
   ]]>
  </style>
 </defs>
 <g id="Camada_x0020_1">
  <metadata id="CorelCorpID_0Corel-Layer"/>
  <path class="fil0" d="M2235.73 470.1l0 348.99 -132.26 -0.01c-1.6,0 -3.19,-1.6 -3.19,-3.19l0 -68.52 0 -277.28c0,-15.94 -3.19,-86.05 -58.96,-146.61 -9.56,-9.56 -63.74,-65.34 -152.98,-65.34 -78.09,0 -148.2,43.03 -183.26,103.58 -6.37,9.56 -28.69,51 -28.69,106.77 1.6,90.83 62.15,149.79 71.71,159.35 60.55,55.77 133.86,58.96 176.88,62.15 19.12,1.6 38.24,0 57.37,-1.6 9.56,-1.6 19.12,-3.19 27.09,-4.78 7.97,-1.6 14.34,3.19 14.34,11.15 0,41.43 0,81.27 0,122.7 0,4.78 -70.12,4.78 -76.49,4.78 -92.43,0 -186.44,-15.94 -262.93,-70.12 -54.18,-38.24 -95.61,-90.83 -119.52,-151.38 -41.43,-103.58 -36.65,-235.84 41.43,-341.02 127.48,-172.1 404.76,-180.07 544.99,-19.12 55.78,63.75 84.46,146.61 84.46,229.48z"/>
  <path class="fil0" d="M6369.36 415.92l417.51 0c-25.49,-92.43 -109.95,-159.35 -208.75,-159.35 -98.8,0 -183.26,66.93 -208.76,159.35zm412.73 130.67l-407.95 0c30.28,84.46 109.95,143.42 203.97,143.42 71.71,0 135.45,-35.06 175.29,-89.24l148.2 0c-51,129.07 -176.88,219.91 -323.49,219.91 -191.22,0 -347.39,-156.17 -347.39,-347.39 0,-191.22 156.17,-347.39 347.39,-347.39 191.22,0 347.39,156.17 347.39,347.39 0,25.49 -3.19,49.4 -7.97,73.3l-135.45 -0.01z"/>
  <path class="fil0" d="M8009.11 296.4l-196.01 0 0 261.34c0,74.89 60.55,133.86 133.86,133.86l60.55 0 0 127.48 -60.55 -0.01c-145.01,0 -261.34,-117.92 -261.34,-261.34l0 -557.74 127.48 0.01 0 167.32 196.01 0 0 129.07z"/>
  <path class="fil0" d="M2395.09 584.83l0 12.75c0,31.87 49.4,95.61 141.83,95.61 98.8,0 141.83,-55.77 141.83,-95.61 0,-47.81 -194.41,-63.74 -231.07,-71.71 -92.43,-20.72 -180.07,-65.34 -180.07,-176.88 0,-141.83 138.64,-223.1 269.31,-223.1 124.3,0 269.31,94.02 269.31,223.1l0 12.75 -127.49 -0.01 0 -12.75c0,-30.28 -57.37,-95.61 -141.83,-95.61 -95.61,0 -141.83,54.18 -141.83,95.61 0,57.37 188.04,70.12 231.07,78.09 89.24,19.12 181.67,60.55 181.67,170.51 0,137.04 -130.67,223.1 -269.31,223.1 -135.45,0 -269.31,-95.61 -269.31,-223.1l0 -12.75 125.89 0.01z"/>
  <path class="fil0" d="M2967.16 584.83l0 12.75c0,31.87 49.4,95.61 141.83,95.61 98.8,0 141.83,-55.77 141.83,-95.61 0,-47.81 -194.41,-63.74 -231.07,-71.71 -92.43,-20.72 -180.07,-65.34 -180.07,-176.88 0,-141.83 138.64,-223.1 269.31,-223.1 124.3,0 269.31,94.02 269.31,223.1l0 12.75 -127.48 -0.01 0 -12.75c0,-30.28 -57.37,-95.61 -141.83,-95.61 -95.61,0 -141.83,54.18 -141.83,95.61 0,57.37 188.04,70.12 231.07,78.09 89.24,19.12 181.67,60.55 181.67,170.51 0,137.04 -130.67,223.1 -269.31,223.1 -135.45,0 -269.31,-95.61 -269.31,-223.1l0 -12.75 125.89 0.01z"/>
  <path class="fil0" d="M4243.58 584.83l0 12.75c0,31.87 49.4,95.61 141.83,95.61 98.8,0 141.83,-55.77 141.83,-95.61 0,-47.81 -194.41,-63.74 -231.07,-71.71 -92.43,-20.72 -180.07,-65.34 -180.07,-176.88 0,-141.83 138.64,-223.1 269.31,-223.1 124.3,0 269.31,94.02 269.31,223.1l0 12.75 -127.48 -0.01 0 -12.75c0,-30.28 -57.37,-95.61 -141.83,-95.61 -95.61,0 -141.83,54.18 -141.83,95.61 0,57.37 188.04,70.12 231.07,78.09 89.24,19.12 181.67,60.55 181.67,170.51 0,137.04 -130.67,223.1 -269.31,223.1 -135.45,0 -269.31,-95.61 -269.31,-223.1l0 -12.75 125.89 0.01z"/>
  <path class="fil0" d="M4814.07 584.83l0 12.75c0,31.87 49.4,95.61 141.83,95.61 98.8,0 141.83,-55.77 141.83,-95.61 0,-47.81 -194.41,-63.74 -231.07,-71.71 -92.43,-20.72 -180.07,-65.34 -180.07,-176.88 0,-141.83 138.64,-223.1 269.31,-223.1 124.3,0 269.31,94.02 269.31,223.1l0 12.75 -127.48 -0.01 0 -12.75c0,-30.28 -57.37,-95.61 -141.83,-95.61 -95.61,0 -141.83,54.18 -141.83,95.61 0,57.37 188.04,70.12 231.07,78.09 89.24,19.12 181.67,60.55 181.67,170.51 0,137.04 -130.67,223.1 -269.31,223.1 -135.45,0 -269.31,-95.61 -269.31,-223.1l0 -12.75 125.89 0.01z"/>
  <polygon class="fil1" points="723.47,820.67 723.47,125.89 873.26,125.89 873.26,820.67 "/>
  <path class="fil1" d="M1031.02 584.83l0 12.75c0,31.87 49.4,95.61 141.83,95.61 98.8,0 141.83,-55.77 141.83,-95.61 0,-47.81 -194.41,-63.74 -231.07,-71.71 -90.83,-20.72 -180.07,-65.34 -180.07,-176.88 0,-141.83 138.64,-223.1 269.31,-223.1 124.3,0 269.31,94.02 269.31,223.1l0 12.75 -127.48 -0.01 0 -12.75c0,-30.28 -57.37,-95.61 -141.83,-95.61 -95.61,0 -141.83,54.18 -141.83,95.61 0,57.37 188.04,68.52 229.47,78.09 89.24,19.12 181.67,60.55 181.67,170.51 0,137.04 -130.67,223.1 -269.31,223.1 -133.86,0 -269.31,-95.61 -269.31,-223.1l0 -12.75 127.48 0.01z"/>
  <path class="fil1" d="M556.14 415.92l135.45 0c-31.87,-157.76 -175.29,-290.02 -344.2,-290.02 -191.22,0 -347.39,156.17 -347.39,347.39 0,191.22 156.17,347.39 347.39,347.39 146.61,0 272.5,-90.83 323.49,-219.91l-148.2 0c-27.09,36.65 -65.34,65.34 -109.95,78.09 -12.75,4.78 -35.06,9.56 -63.74,9.56 -79.68,0 -133.86,-46.21 -141.83,-54.18 -36.65,-31.87 -54.18,-70.12 -62.15,-90.83 -4.78,-14.34 -11.15,-36.65 -12.75,-63.74 -1.6,-28.69 3.19,-51 7.97,-66.93 25.49,-94.02 111.55,-159.35 208.75,-159.35 95.62,3.18 181.67,68.52 207.16,162.54z"/>
  <path class="fil1" d="M4084.23 694.79l-189.63 0 0 124.3 116.32 -0.01c39.84,0 73.3,-33.46 73.3,-73.3l0 -50.99z"/>
  <g>
   <path class="fil0" d="M3757.55 247l0 0c14.34,0 28.69,1.6 43.03,4.78 54.18,11.15 90.83,38.24 113.14,60.55l0 0 0 0c9.56,9.56 19.12,19.12 25.49,30.28 7.97,12.75 15.94,25.49 20.72,39.84 0,1.6 0,1.6 0,3.19 0,1.6 0,3.19 -1.6,3.19l-114.73 116.33 -108.36 108.36 -35.06 35.06 0 41.43c-12.75,-3.19 -25.49,-6.37 -36.65,-11.15 -20.72,-9.56 -39.84,-20.72 -57.37,-36.65 -23.9,-20.72 -43.03,-46.21 -57.37,-76.49 -12.75,-30.28 -20.72,-62.15 -20.72,-94.02 0,-47.81 15.94,-86.05 28.69,-108.36 12.75,-23.9 30.28,-44.62 51,-62.15 25.49,-20.72 54.18,-36.65 87.64,-46.21 22.31,-4.79 41.44,-7.97 62.15,-7.97l0 0zm0 -121.11c-38.24,0 -70.12,6.37 -90.83,12.75 -30.28,7.97 -82.86,27.09 -133.86,70.12 -39.84,33.46 -63.74,70.12 -78.09,95.61 -15.94,28.69 -43.03,87.64 -43.03,167.32 0,65.34 19.12,116.33 31.87,145.01 12.75,28.69 39.84,74.89 87.64,117.92 33.46,28.69 65.34,46.21 89.24,55.77 22.31,9.56 51,17.53 84.46,23.9 27.09,4.78 52.59,6.37 74.89,6.37 17.53,0 33.46,-1.6 46.21,-3.19l0 -119.52c76.49,-78.09 154.58,-154.58 231.07,-232.66 7.97,-11.15 25.49,-36.65 27.09,-73.3 1.6,-22.31 -3.19,-39.84 -7.97,-51 -7.97,-19.12 -19.12,-43.03 -36.65,-68.52 -14.34,-20.72 -28.69,-36.65 -43.03,-49.4 -23.9,-22.31 -82.86,-73.3 -173.7,-92.43 -22.31,-3.19 -44.62,-4.78 -65.34,-4.78l0 0z"/>
  </g>
  <path class="fil0" d="M5257.07 819.08l0 -423.88c0,-148.2 121.11,-269.31 269.31,-269.31 79.68,0 151.38,35.06 200.79,90.83 49.4,-55.77 121.11,-90.83 200.79,-90.83 148.2,0 269.31,121.11 269.31,269.31l0 423.88 -135.46 0 0 -423.88c0,-73.3 -60.55,-133.86 -133.86,-133.86 -73.3,0 -133.86,60.55 -133.86,133.86l0 423.88 -135.45 0 0 -423.88c0,-73.3 -60.55,-133.86 -133.86,-133.86 -73.3,0 -133.86,60.55 -133.86,133.86l0 423.88 -133.86 0z"/>
  <rect class="fil0" x="5257.07" y="127.49" width="130.67" height="524.27"/>
  <path class="fil0" d="M7518.3 820.67l0 -348.99c0,-117.92 -95.61,-211.94 -211.94,-211.94 -117.92,0 -211.94,95.61 -211.94,211.94l0 348.99 -137.04 0 0 -348.99c0,-192.82 156.17,-348.99 348.99,-348.99 192.82,0 348.99,156.17 348.99,348.99l0 348.99 -137.05 0z"/>
  <rect class="fil0" x="6957.38" y="122.71" width="132.26" height="529.06"/>
 </g>
</svg>
