<?xml version="1.0" encoding="UTF-8"?>
<!DOCTYPE svg PUBLIC "-//W3C//DTD SVG 1.1//EN" "http://www.w3.org/Graphics/SVG/1.1/DTD/svg11.dtd">
<!-- Creator: CorelDRAW -->
<svg xmlns="http://www.w3.org/2000/svg" xml:space="preserve" width="152.277mm" height="160.259mm" version="1.1" style="shape-rendering:geometricPrecision; text-rendering:geometricPrecision; image-rendering:optimizeQuality; fill-rule:evenodd; clip-rule:evenodd"
viewBox="0 0 16055.7 16897.38"
 xmlns:xlink="http://www.w3.org/1999/xlink"
 xmlns:xodm="http://www.corel.com/coreldraw/odm/2003">
 <defs>
  <style type="text/css">
   <![CDATA[
    .fil1 {fill:#D1D9EE}
    .fil0 {fill:#A4C8D9}
   ]]>
  </style>
 </defs>
 <g id="Camada_x0020_1">
  <metadata id="CorelCorpID_0Corel-Layer"/>
  <path class="fil0" d="M4686.71 11913.9l0 -1339.06c12.21,-4.42 19.47,-14.86 29.04,-24.52 10.91,-11.03 19.09,-19.16 28.98,-29.04l38.65 -41.69c0.5,-0.86 1.02,-2.08 1.52,-2.94 0.5,-0.88 1.02,-2.09 1.52,-2.95 0.5,-0.84 1.06,-2.05 1.58,-2.88l10.1 -12.21c0.16,-0.16 4.69,-4.41 6.87,-6.53 3.85,-3.76 4.32,-4.32 6.71,-6.68l2175.95 -2175.99c31.85,-31.85 196.02,-186.16 218.02,-223.87l20.78 -23.85c5.35,-5.26 9.19,-9.18 15.66,-15.58l152.6 -213.41c0.61,-1.22 2.29,-4.81 2.89,-6.04 1.1,-2.26 2.79,-5.64 4.42,-8.97l35.72 -62.47c0.46,-0.91 1.03,-2.07 1.5,-2.97l9.09 -17.68c3.71,-8.17 0.56,0.13 3.83,-9.57 1.73,-5.15 1.41,-5.8 2.89,-10.5 0.35,-1.13 0.64,-2.34 1.02,-3.44l18.87 -39.15c6.95,-13.73 -3.98,7.71 3,-5.93 0.73,-1.41 5.76,-11.03 6.09,-11.76 3.71,-8.17 0.55,0.12 3.82,-9.57l32.01 -88.5c0.46,-1.37 1.92,-5.18 2.38,-6.55l22.18 -67.09c0.36,-1.09 0.75,-2.26 1.12,-3.34 0.37,-1.05 0.85,-2.18 1.21,-3.25l18.86 -83.8c0.35,-1.06 0.94,-2.12 1.28,-3.19l15.29 -82.9c7,-21.16 1.71,-40.97 8.93,-62.49l5.84 -52.19c-0.12,-19.36 0.11,-38.73 -0.06,-58.09l5.86 -47.69c0.36,-1.06 0.92,-2.13 1.23,-3.24 4.35,-15.29 3.48,-47.98 -1.23,-61.98 -12.52,-37.14 2.37,-83.6 -10.29,-119.16 -4.82,-13.56 -2.1,-37.17 -5.36,-52.67 -5.35,-25.43 -3.56,8.02 -7.73,-23.51 -1.1,-8.34 0.49,-17.83 -0.6,-26.18l-11.88 -46.14c-8.85,-28.23 -9.88,-56.57 -18.89,-83.77 -0.35,-1.08 -0.88,-2.17 -1.24,-3.23 -0.36,-1.06 -0.84,-2.19 -1.21,-3.25l-15.56 -46.92c-0.37,-1.06 -0.83,-2.21 -1.19,-3.28l-20.08 -60.27c-0.36,-1.13 -0.63,-2.35 -0.98,-3.48 -1.95,-6.22 -0.59,-3.5 -3.17,-10.22l-28.13 -65.61c-0.45,-0.9 -1.03,-2.06 -1.5,-2.96 -0.45,-0.91 -1.03,-2.07 -1.49,-2.97l-7.48 -14.84c-0.46,-0.91 -1.06,-2.05 -1.53,-2.94l-12.29 -32.34c-3.27,-9.7 -0.12,-1.4 -3.83,-9.56 -0.07,-0.18 -4.18,-8.07 -4.57,-8.83l-90.82 -181.45c-0.46,-0.92 -1.03,-2.07 -1.5,-2.97l-24.36 -42.6c-4.4,-5.86 -3.18,-3.74 -7.05,-10.8l-5.82 -12.04c-0.59,-1.23 -2.33,-4.76 -2.94,-5.99 -0.44,-0.92 -1.02,-2.07 -1.47,-2.98l-94.71 -159.72c-1.76,-2.44 -5.74,-7.14 -5.95,-7.44l-5 -8.39c-0.51,-0.84 -1.05,-2.05 -1.57,-2.89l-16.28 -23.89c-0.51,-0.84 -1.06,-2.05 -1.57,-2.89 -0.52,-0.83 -1.13,-2 -1.66,-2.82l-9.63 -12.68c-0.54,-0.78 -1.25,-1.89 -1.77,-2.69l-19.67 -29.43c-0.69,-1.15 -2.44,-4.66 -3.05,-5.88 -0.46,-0.92 -0.97,-2.11 -1.42,-3.04l-7.2 -15.12c-0.5,-0.85 -1.12,-2 -1.64,-2.82l-104.2 -141.29c-0.86,-0.97 -3.28,-3.83 -4.04,-4.9l-33.13 -47.2c-9.68,-16.56 -24.12,-26.55 -37.29,-47.52 -9.66,-15.38 -25.04,-26.19 -34.12,-41.75l-11.69 -15.1c-0.14,-0.15 -4.69,-4.41 -6.86,-6.53 -33.59,-32.77 -35.63,-45.22 -69.27,-78.02l-16.26 -19.44c-0.63,-1.08 -2.41,-4.81 -3.04,-5.88 -3.98,-6.81 -0.12,-1.66 -5.2,-8.2l-51.31 -51.35c-22.61,-22.58 -58.22,-49.73 -74.37,-77.4 -0.51,-0.85 -1.02,-2.07 -1.52,-2.94 -5.7,-10.03 -16.67,-26.34 -36.06,-39.81l-117.95 -109.69c-6.36,-6.38 -6.91,-7.15 -13.22,-13.56l-76.9 -65.94c-26.85,-16.85 -40.27,-39.61 -62.49,-53.56 -5.78,-3.63 -3.64,-1.62 -8.77,-4.62 -15.39,-8.99 -23.03,-23.48 -38.75,-32.68l-52.17 -37.08c-4.86,-4.21 -8.8,-9.39 -13.08,-13.7 -3.67,-3.68 0.11,-1.08 -6.89,-6.52l-8.2 -5.19c-0.85,-0.51 -2.07,-1.02 -2.94,-1.52 -0.86,-0.5 -2.08,-1.02 -2.94,-1.53 -0.84,-0.5 -2.05,-1.06 -2.87,-1.58l-26.95 -22.15c-5.19,-3.05 -2.88,-0.9 -8.76,-4.63l-35.59 -26.91c-0.81,-0.52 -1.91,-1.22 -2.7,-1.77l-10 -7.86c-0.78,-0.54 -1.89,-1.25 -2.69,-1.77l-160.53 -107.28c-0.27,-0.14 -8.28,-4.09 -8.92,-4.47l-44.68 -31.2c-4.89,-3.17 -2.51,-1.64 -8.65,-4.74 -0.92,-0.46 -2.11,-0.97 -3.04,-1.42l-50.76 -29.59c-3.47,-1.68 -8.39,-4.02 -11.69,-6.16l-89.27 -53.56c-0.93,-0.45 -2.11,-0.98 -3.03,-1.43l-122.08 -60.93c-1.22,-0.61 -4.73,-2.36 -5.96,-2.97l-38.69 -19.35c-1.21,-0.6 -4.72,-2.36 -5.95,-2.97 -0.91,-0.45 -2.07,-1.03 -2.97,-1.49l-14.88 -7.43c-0.92,-0.46 -2.07,-1.03 -2.98,-1.5l-226.22 -99.62c-0.97,-0.41 -2.1,-0.97 -3.05,-1.41 -1.24,-0.58 -4.6,-2.5 -5.81,-3.11l-8.86 -4.53c-0.99,-0.42 -2.16,-0.9 -3.18,-1.29l-88.68 -31.83c-1.06,-0.37 -2.26,-0.76 -3.3,-1.16 -1.01,-0.39 -2.18,-0.88 -3.17,-1.3l-168.49 -59.15c-1.09,-0.36 -2.26,-0.75 -3.33,-1.12l-42.52 -11.05c-1.06,-0.35 -2.17,-0.88 -3.23,-1.23l-88.98 -27.08c-1.13,-0.34 -2.24,-0.76 -3.41,-1.05l-15.27 -2.58c-8.59,-1.7 -4.57,-0.82 -10.71,-2.69 -0.11,-0.03 -6.34,-2.45 -6.44,-2.48 -1.12,-0.34 -2.2,-0.8 -3.35,-1.12l-283.86 -64.3c-8.34,-1.1 -17.84,0.51 -26.17,-0.6 -22.02,-2.91 -10.21,-5.65 -49.41,-8.62l-17.85 -4.46c-17.5,-6.13 -43,-5.7 -56.66,-10.29 -19.7,-6.6 -34.66,-0.43 -54.71,-3.32 -19.86,-2.86 -26.39,-9.25 -49.2,-8.83l-47.86 -5.7c-1.05,-0.36 -2.12,-0.92 -3.23,-1.23 -25.68,-7.31 -55.81,2.9 -82.05,-2.76 -25.26,-5.44 7.76,-3.26 -23.42,-7.82 -36.31,-5.31 -95.41,7.39 -129.22,-4.68l-6.34 -2.58c-21.29,-6.06 -302.31,-3.54 -314.15,-0.99 -26,5.61 6.37,1.55 -19.63,7.16 -36.85,7.94 -77.86,-2.55 -115.33,0.72 -25.91,2.26 -11.36,2.82 -20.79,5.99 -27.65,9.31 -64.88,-2.33 -94.21,3.99 -20.97,4.52 -0.82,0.86 -12.92,4.95 -26.14,8.79 -21.4,-4.96 -74.65,10.15 -18.82,5.35 -47.47,0.12 -65.08,6.34l-39.88 4.77c-22,2.91 -10.2,5.65 -49.4,8.62 -7.64,0.58 -4.66,0.02 -11.5,1.89 -29.98,8.22 -41.78,5.16 -59.91,11.5 -4.72,1.66 4.52,0.62 -9.86,3.53 -5.69,1.16 -6.76,0.77 -12.4,1l-227.87 48.86c-1.06,0.36 -2.16,0.88 -3.22,1.24 -1.06,0.36 -2.19,0.84 -3.26,1.21l-52.62 14.33c-11,3.34 4.55,-0.86 -6.44,2.48l-178.59 53.51c-4.44,1.52 -7.82,2.43 -13.57,4.29 -1.1,0.36 -2.28,0.73 -3.36,1.1l-6.58 2.35c-1.06,0.37 -2.2,0.83 -3.27,1.19l-40.35 13.22c-1.1,0.36 -2.28,0.73 -3.36,1.09 -1.09,0.36 -2.24,0.8 -3.31,1.16 -1.06,0.37 -2.2,0.83 -3.27,1.19l-47.15 15.33c-1.08,0.38 -2.27,0.77 -3.31,1.17l-77.63 29.49c-0.24,0.11 -6.48,3.61 -8.68,4.7l-95.33 38.58c-0.9,0.46 -2.06,1.05 -2.95,1.52 -0.9,0.46 -2.03,1.06 -2.93,1.53l-53.67 22.22c-13.63,6.98 7.8,-3.95 -5.93,3l-74.42 32.7c-13.12,6.73 7.28,-3.67 -5.93,3l-107.11 53.57c-0.92,0.45 -2.07,1.03 -2.97,1.49 -0.92,0.45 -2.07,1.03 -2.97,1.49l-20.83 10.42c-0.92,0.45 -2.07,1.03 -2.97,1.49l-17.89 8.89c-0.93,0.45 -2.09,1 -3,1.46 -0.93,0.45 -2.11,0.98 -3.04,1.43l-47.47 28.4c-3.33,1.62 -6.73,3.32 -8.98,4.42l-163.62 95.25c-0.85,0.51 -2.06,1.06 -2.89,1.58l-47.63 32.73c-0.63,0.37 -8.65,4.33 -8.92,4.46l-157.78 105.57c-6.66,3.99 -1.69,0.07 -8.15,5.24l-51.42 37.85c-17.44,10.19 -30.24,27.16 -47.54,37.26 -16.93,9.89 -26.03,23.67 -47.5,37.3l-35.72 26.77c-5.63,3.54 -9.67,7.56 -14.4,12.37l-36.44 34.98c-26.69,16.74 -44.21,42.41 -71.25,58.19l-15.1 11.68c-0.15,0.15 -4.4,4.69 -6.53,6.86 -4.87,5 -4.14,4.21 -8.89,8.96 -44.94,45.07 -45.81,51.39 -91.17,82.91 -20.31,14.12 -104.12,99.47 -117.92,123.11 -22.16,37.98 -71.32,66.45 -98.89,101.97 -9.83,12.64 5.39,-9.03 -3.61,5.31 -0.53,0.83 -1.09,2.03 -1.59,2.88l-19.3 25.34c-3,2.92 -6.07,5.96 -9,8.86l-53.56 62.49c-2.1,2.07 -3.06,3.12 -6.71,6.67l-13.36 13.42c-5.08,6.55 -1.22,1.39 -5.2,8.2l-92.31 121.94c-0.5,0.85 -1.05,2.05 -1.58,2.88 -0.51,0.82 -1.16,1.96 -1.71,2.75 -15.77,22.66 -18.29,16.93 -34.12,41.75l-98.19 142.85c-0.52,0.8 -1.23,1.9 -1.77,2.69l-170.44 280.37c-3.24,4.97 -1.64,2.57 -4.77,8.64l-11.74 23.98c-0.45,0.91 -1.03,2.06 -1.49,2.97l-16.36 32.73c-0.45,0.92 -1.03,2.07 -1.49,2.97 -0.23,0.46 -2.91,5.82 -2.97,5.96 -0.46,0.91 -1.03,2.07 -1.49,2.97l-2.98 5.96c-0.45,0.91 -1.03,2.06 -1.49,2.97l-25.29 50.59c-0.45,0.91 -1.03,2.06 -1.49,2.97l-7.43 14.88c-0.46,0.91 -1.03,2.07 -1.49,2.97l-16.37 32.74c-0.45,0.91 -1.03,2.06 -1.49,2.97l-7.43 14.88c-0.46,0.91 -1.03,2.07 -1.49,2.97l-13.4 26.78c-0.45,0.91 -1.03,2.07 -1.49,2.97l-28.27 65.47c-0.46,0.9 -1.04,2.06 -1.52,2.95 -0.46,0.9 -1.05,2.03 -1.52,2.93 -0.46,0.9 -1.09,2.02 -1.54,2.92 -0.46,0.91 -1.1,2.01 -1.54,2.93l-33.12 78.47c-1.49,4.76 -1.13,5.3 -2.89,10.5l-5.39 12.47c-1.09,2.2 -4.59,8.45 -4.7,8.69 -3.79,8.1 -0.55,-0.04 -3.87,9.52 -1.73,4.99 -1.5,5.64 -2.99,10.4l-61.45 166.19c-0.37,1.11 -0.67,2.32 -1.04,3.43l-15.74 55.67c-1.36,4.06 -1.77,6.1 -3.16,10.23l-29.3 86.74c-0.36,1.08 -0.86,2.17 -1.19,3.27l-5.22 26.03c-0.31,1.14 -0.77,2.24 -1.11,3.35l-18.93 74.81c-0.36,1.06 -0.89,2.16 -1.24,3.22 -0.37,1.06 -0.85,2.19 -1.21,3.26 -1.73,5.01 -2.63,8.49 -4.35,13.5 -0.37,1.06 -0.85,2.19 -1.21,3.25 -0.47,1.36 -2.01,5.09 -2.44,6.49l-20.49 82.18c-1.49,10.55 0.51,13.22 -2.43,24.35 -0.31,1.14 -0.84,2.19 -1.18,3.29l-45.96 244.17c-0.37,1.02 -1.01,2.06 -1.36,3.11 -5.89,17.86 -2.84,35.29 -8.93,53.55 -5.71,17.11 -2.69,43.96 -8.93,62.48 -7.3,21.68 0.2,55.49 -7.56,77.24 -1.46,4.08 -0.65,-3.76 -3.58,9.82 -5.92,27.46 2.34,55.7 -6.71,82.56 -10.93,32.44 -1.22,90.37 -2.78,126.66l-6.15 25.09c-0.96,2.86 -2.11,25.95 -3.1,59.26l0 265.96c1.03,18.66 2.49,32.17 4.46,37.69 14.18,39.76 -5.28,94.06 8.93,133.91 9.98,27.99 -2.17,66.19 7.57,95.09 7.18,21.34 1.97,42.63 6.71,64.71 4.88,22.79 6.6,11.75 7.8,50.22 0.7,21.98 9.25,25.82 9.33,48.7l18.62 124.22c5.21,25.72 3.5,-8.21 7.7,23.54l42.83 198.2c0.32,1.19 0.61,2.34 0.9,3.56l4.43 22.35c0.43,1.4 2.06,5.04 2.49,6.44l31.18 120.59c0.27,1.24 0.55,2.39 0.86,3.6l15.82 46.68c0.36,1.12 0.65,2.33 1.01,3.44l30.06 99.39c0.35,1.06 0.88,2.17 1.24,3.23 0.36,1.06 0.84,2.19 1.21,3.25l13.04 40.52c0.37,1.06 0.76,2.26 1.16,3.3l18.03 44.46c0.36,1.08 0.82,2.2 1.19,3.28 0.36,1.06 0.82,2.2 1.18,3.28l6.38 20.39c0.52,1.33 2.13,4.98 2.71,6.22l22.91 61.9c3.27,9.49 0.16,1.5 3.84,9.55 0,0 3.69,7.11 4.57,8.81 0.46,0.9 1.06,2.05 1.53,2.94l18.02 44.47c0.39,1.02 0.86,2.18 1.29,3.17 0.41,0.97 0.98,2.11 1.41,3.05l10.09 21.16c0.37,1.1 0.66,2.32 1.02,3.44l25.76 59.05c0.37,1.11 0.67,2.32 1.02,3.45l15.81 37.76c0.45,0.91 1.03,2.06 1.49,2.97l8.93 17.85c0.45,0.91 1.03,2.07 1.49,2.97l5.96 11.9c0.61,1.22 2.36,4.72 2.97,5.95l14.88 29.77c1.27,2.52 2.73,5.45 4.46,8.92l23.81 47.62c1.74,3.47 3.21,6.4 4.47,8.92 0.45,0.92 1.02,2.07 1.49,2.98 0.45,0.91 1.03,2.06 1.49,2.97l17.85 35.71c0.61,1.21 2.36,4.72 2.97,5.95 10.16,20.32 18.48,43.33 31.72,62.02l114.35 193.65c0.52,0.8 1.23,1.9 1.77,2.69 0.21,0.3 4.18,5.01 5.95,7.44l93.08 139.02c3.71,5.79 1.6,3.56 4.69,8.7 0.51,0.84 1.12,2 1.63,2.83l57.67 80.7c0.51,0.84 1.05,2.06 1.55,2.91l55.12 74.32c9.81,16.78 25.56,28.83 37.29,47.51 10.41,16.59 24.59,25.42 34.12,41.75l48.94 53.73c0.52,0.82 1.09,2.02 1.58,2.88l6.34 11.51c15.7,22.61 34.69,32.4 51.84,59.74 25.84,41.17 123.79,110.76 148.53,154.99 9.69,17.31 25.98,20.74 40.37,35.5 18.62,19.09 35.81,36 55.7,55.89 19.19,19.19 35.98,42.73 58.92,57.14 27.03,16.96 43.74,42.12 71.25,58.18 15.21,8.88 25.16,21.95 37.16,34.26l281.24 214.22c0.85,0.5 2.06,1.04 2.9,1.56l5.52 3.41c0.21,0.15 5.08,4.22 7.44,5.94 0.76,0.55 1.77,1.38 2.55,1.92l127.51 82.28c0.25,0.12 8.3,4.1 8.92,4.46l187.38 111.67c3.41,1.71 8.51,4.25 11.9,5.96l50.67 25.21c0.83,0.5 1.96,1.17 2.76,1.7l68.57 38.56c2.52,1.25 5.51,2.74 8.93,4.46l101.18 46.12c0.91,0.46 2.06,1.03 2.97,1.5l95.25 43.11c1.2,0.62 4.68,2.4 5.89,3.04l172.32 68.71c3.8,1.28 2.75,1.09 6.55,2.37l47.01 15.47c3.8,1.3 2.75,1.11 6.55,2.38 3.75,1.27 5.18,1.63 10.19,3.21l153.8 51.53c4.12,1.38 6.16,1.8 10.23,3.16 1.09,0.36 2.26,0.75 3.33,1.13 1.06,0.36 2.19,0.84 3.26,1.21l72.38 21.34c9.31,2.45 13.35,1.66 22.63,4.15l9.81 3.6c9.58,2.91 3.76,1.17 14.62,3.23l195.34 45.68c13.29,2.66 6.43,2.24 9.97,3.42l98.22 17.84c4.04,1.38 -3.8,0.66 9.96,3.43l37.76 6.89c17.1,5.63 38.33,0.18 56.28,6.2 1.38,0.46 4.84,2.26 6.21,2.72l41.66 2.97c26.29,2.02 11.29,2.74 20.83,5.96 20.37,6.84 49.47,0.84 68.31,7.56 1.02,0.37 2.06,1.01 3.1,1.36 1.06,0.36 2.13,0.92 3.24,1.23 9.39,2.67 18.89,2.18 29.25,1.99 7.44,-0.14 20.14,-0.89 27.07,-0.28 7.3,0.62 5.01,0.23 11.36,2.03l9.44 3.95c32.07,10.81 83.9,-2.79 112.94,7.57l21.99 4.79c9.43,0.4 21.76,-0.28 31.57,-0.32l981.98 -0.01z"/>
  <path class="fil0" d="M9471.14 10423.17c-15.46,5.6 -1.69,-1.44 -13.53,8.79 -4.27,3.68 -5.35,5.45 -11.04,11.28 -55.06,56.42 -313.28,303.69 -331,334.07l-2170.93 2176.54c-13.64,15.87 -14.48,24.32 -33.35,42.53 -17.15,16.55 -25.72,34.39 -42.55,51.17l-98.04 143.01c-0.44,0.94 -0.95,2.13 -1.4,3.06l-24.01 38.48c-0.45,0.92 -0.98,2.1 -1.43,3.03l-63.95 127.98c-0.46,0.91 -1.06,2.05 -1.52,2.94l-28.2 70c-0.35,1.15 -0.57,2.39 -0.93,3.53l-18.1 53.31c-0.27,1.25 -0.55,2.4 -0.86,3.61l-28.16 83.42c-4.82,13.63 0.04,-4.98 -3.63,9.76 -1.89,7.54 -0.98,4.22 -1.72,11.67 -0.99,9.96 0.57,9.86 -2.1,20.22 -0.3,1.15 -0.82,2.2 -1.16,3.3l-17.89 80.3c-6.12,19.05 -3.13,45.65 -10.25,65.64 -10.24,28.75 1.51,40.89 -11.52,86.68 -1.8,6.36 -1.4,4.07 -2.03,11.36 -0.59,6.76 0.06,19.54 0.13,26.9 0.35,40 -4.98,169.87 4.5,196.44 7.71,21.59 0.37,55.84 7.57,77.24 4.25,12.62 2.02,-9.03 5.59,16.72 2.02,14.56 -0.86,33.01 3.33,45.77 3.13,9.51 3.08,-3.87 5.66,21.12l96.41 309.78c0.37,1.1 0.66,2.32 1.02,3.44l17.29 40.73c0.46,0.91 1.03,2.07 1.5,2.97l5.95 11.9c0.45,0.91 1.03,2.06 1.49,2.97 1.74,3.48 3.19,6.4 4.46,8.93l20.71 41.78c2.54,6.8 1.19,3.99 3.1,10.28l16.36 37.2c1.72,3.42 3.22,6.41 4.47,8.93l110.01 202.43c0.6,1.23 2.25,4.85 2.89,6.03l34.23 59.52c0.62,1.21 2.37,4.71 3.06,5.86l116.22 178.37c0.51,0.83 1.12,2 1.64,2.82 0.53,0.81 1.23,1.91 1.78,2.69l12.82 18.43c12.94,22.1 19.31,23.4 28.4,38.54l60.86 86.44c0.51,0.86 1.03,2.08 1.54,2.93l3.31 5.61c10.12,14.46 23.16,23.15 32.41,39 7.98,13.66 22.49,22.17 31.09,35.87 11.26,17.93 28.66,32.61 38.81,50.46l10.98 15.81c13.2,14.14 25.56,24.22 35.17,40.7 0.5,0.85 1.06,2.05 1.58,2.88l12.38 14.41c16.45,16.21 35.4,30.75 47.01,51.18 0.49,0.86 1.01,2.09 1.52,2.94 0.5,0.85 1.05,2.06 1.58,2.88 0.52,0.82 1.16,1.97 1.71,2.75 27.09,38.99 101.74,89.78 125.99,128.43 8.25,13.14 14.57,24.78 27.67,34.84 13.13,10.08 -9.53,-5.69 5.32,3.6 36.27,22.7 65.11,57.92 95.09,87.91l42.42 42.39c33.86,26.29 12.4,2.4 57.99,49.13l18.75 16.96c5.78,3.63 3.64,1.62 8.76,4.62 0.85,0.5 2.06,1.06 2.89,1.58l45.52 43.76c12.67,9.84 -9.06,-5.42 5.32,3.61l91.98 68.69c5.73,3.6 9.63,7.46 14.37,12.41l30.26 23.3c0.81,0.52 1.96,1.17 2.74,1.73l110.72 81.21c5.48,3.54 3.64,1.78 8.58,4.8 0.83,0.52 2,1.13 2.82,1.66l104.31 69.77c0.83,0.51 2,1.12 2.82,1.64l101.43 63.73c0.93,0.45 2.12,0.96 3.06,1.4l71.41 40.18c0.83,0.5 1.96,1.17 2.76,1.7l113.21 65.33c2.51,1.27 5.46,2.74 8.92,4.47l29.77 14.88c1.21,0.61 4.72,2.36 5.95,2.97l126.46 61.01c1.16,0.35 2.39,0.57 3.53,0.93 24.43,7.62 25.9,11.39 45.56,21.4 0.9,0.46 2.05,1.04 2.95,1.51l14.84 7.49c0.99,0.41 2.15,0.9 3.18,1.28l47.48 19.46c1.22,0.62 4.73,2.37 5.95,2.98l20.67 10.59c0.95,0.43 2.09,0.99 3.07,1.4l51.12 20.29c1.1,0.38 2.31,0.69 3.43,1.04l91.48 33.5c1.25,0.58 4.6,2.49 5.82,3.11 0.9,0.45 1.97,1.14 2.87,1.59l49.67 17.28c1.1,0.36 2.28,0.73 3.37,1.09l96.87 32.58c0.04,0.02 6.84,2.02 6.89,2.05 1.1,0.36 2.28,0.73 3.37,1.09l187.41 53.63c31.2,10.77 70.85,14.79 87.05,20.08 1.06,0.35 2.12,0.94 3.19,1.28l98.93 21.58c25.29,3.6 5.07,1.56 17,5.31l31.52 4.2c14.42,2.9 14.47,7.23 32.23,7.94 28.83,1.15 33.78,7.64 62.62,8.79 5.63,0.22 6.71,-0.15 12.4,0.99l64.3 16.05c17.11,3.64 42.7,-1.34 58.51,3.99 19.12,6.43 36.62,3.99 56.82,5.66 37.1,3.09 -1.73,6.05 35.38,9.26 25.03,2.16 46.39,-0.86 65.76,5.65 10.93,3.69 9.44,3.25 23.34,3.44 29.5,0.41 67.35,-6.68 95.42,2.77l12.92 4.93c28.72,6.2 353,0.78 414.23,0.9 16.82,0.02 40.14,1.87 54.91,-3.11 47.47,-15.99 74.53,4.15 134.42,-12.87 20.7,-5.89 50.91,1.76 70.91,-4.98 1.03,-0.36 2.08,-1 3.1,-1.36 16.35,-5.83 31.82,-3.52 49.41,-4.16 39.88,-1.46 4.58,-6.47 39.7,-9.39 18.6,-1.54 36.03,1.96 53.73,-4.29l75.87 -13.4c23.62,-2.12 10.62,-6.7 40.17,-8.93l128.24 -23.51c6.45,-2.02 2.01,-0.97 10.67,-2.72 4.74,-0.97 6.29,-0.51 11.63,-1.76l191.79 -49.24c7.1,-2.15 2.32,-0.95 10.81,-2.58l261.93 -81.76c1.11,-0.37 2.33,-0.66 3.43,-1.04l47.75 -19.19c1.38,-0.46 5.19,-1.92 6.56,-2.37l26.62 -9.1c1.24,-0.58 4.6,-2.49 5.81,-3.11l139.89 -56.5c0.9,-0.46 2.05,-1.04 2.95,-1.51 0.91,-0.45 2.06,-1.03 2.96,-1.5l17.82 -8.96c2.08,-1.08 5.17,-2.85 8.79,-4.61l59.68 -25.12c0.92,-0.46 2.07,-1.03 2.97,-1.49l202.36 -101.18c0.91,-0.45 2.06,-1.03 2.97,-1.49l65.45 -37.21c1.23,-0.6 4.76,-2.35 5.98,-2.95 0.93,-0.44 2.08,-1.01 3,-1.47l80.17 -44.8c0.8,-0.52 1.87,-1.28 2.65,-1.82l110.8 -72.18c0.82,-0.53 1.98,-1.15 2.82,-1.66 0.84,-0.52 2.05,-1.06 2.89,-1.57l5.7 -3.23c4.4,-2.84 2.5,-1.86 7.69,-5.7l29.24 -19.86c0.76,-0.56 1.77,-1.38 2.54,-1.92l29.48 -19.62c0.82,-0.52 1.98,-1.14 2.83,-1.63 5.13,-3.09 2.91,-0.98 8.7,-4.7 5.09,-3.27 8.55,-6.91 12.03,-10.28l38.93 -28.03c0.81,-0.53 1.98,-1.14 2.82,-1.64l35.49 -22.53c0.81,-0.53 1.96,-1.17 2.74,-1.73l49.46 -39.8c7.93,-8.34 1.35,-3.5 11.18,-11.14l69.17 -51.35c15.77,-16.6 36.99,-27.67 53.5,-44.71l19.44 -16.26c20.08,-11.72 35.6,-29.44 51.97,-46.23 14.97,-15.35 31.78,-22.3 46.95,-37.85l180.83 -171.79c0.18,-0.17 6.76,-6.53 6.81,-6.58l12.49 -18.75c15.46,-26.49 72.6,-76.1 96.75,-99.65l26.57 -35.92c3.66,-4.25 5.44,-5.34 11.28,-11.03l24.7 -24.4c1.11,-1.3 4.22,-5.37 5.68,-7.71l36.6 -43.75c18.12,-17.68 22.27,-29.52 44.8,-53.4 2.17,-2.31 5.4,-6.12 6.16,-7.22l58.52 -75.39c1.04,-1.21 4.26,-5.43 5.68,-7.71l74.57 -103.98c0.5,-0.85 1.04,-2.07 1.55,-2.91 0.51,-0.83 1.12,-2 1.64,-2.83 0.51,-0.81 1.22,-1.91 1.76,-2.69l56.16 -77.76c0.39,-0.67 4.21,-8.57 4.41,-8.98l51.9 -86.47c0.5,-0.83 1.17,-1.95 1.7,-2.76l35.67 -53.6c0.01,-0.02 2.79,-6.1 2.8,-6.13l24.01 -38.47c0.61,-1.22 2.29,-4.81 2.89,-6.04 1.1,-2.26 2.79,-5.64 4.42,-8.97 0.45,-0.93 1.01,-2.08 1.47,-2.99l83.36 -148.75c0.45,-0.92 1.02,-2.07 1.49,-2.97l13.39 -26.78c8.27,-16.54 -5.29,10.59 2.97,-5.96 1.27,-2.53 2.72,-5.45 4.46,-8.92 0.45,-0.92 1.03,-2.07 1.49,-2.98l11.9 -23.8c0.61,-1.22 2.37,-4.73 2.97,-5.96l37.66 -82.85c0.37,-1.08 0.76,-2.27 1.15,-3.31l21.73 -45.23c1.73,-5.15 1.41,-5.8 2.89,-10.5l19.9 -42.59c0.46,-0.91 1.04,-2.06 1.5,-2.96l37.04 -92.41c0.43,-0.93 1.08,-2.02 1.53,-2.94l21.38 -58.95c0.37,-1.08 0.77,-2.27 1.16,-3.31l24.58 -64.69c0.36,-1.12 0.66,-2.33 1.04,-3.43l44.8 -133.74c0.37,-1.08 0.8,-2.22 1.17,-3.3l8.92 -26.78c0.37,-1.06 0.83,-2.2 1.19,-3.27l11.36 -33.29c0.32,-1.2 0.59,-2.35 0.86,-3.6l16.85 -67.95c1.42,-4.13 1.83,-6.05 3.23,-10.16 0.37,-1.09 0.76,-2.27 1.13,-3.34 0.37,-1.05 0.85,-2.18 1.21,-3.25l36.85 -146.16c0.96,-2.92 0.91,2.45 3.35,-10.04 1.22,-6.24 0.54,-6.66 1.04,-12.35l32.6 -159.33c5.08,-15.65 0.71,-28.49 5,-44.1l6.87 -42.23c0.07,-20.6 6.02,-21.84 9.09,-62.32 2.49,-32.9 9.13,-16.36 8.69,-67.18 -0.05,-6.85 -0.31,-14.56 1.13,-21.19 5.6,-26.01 1.55,6.37 7.15,-19.63 2.77,-12.86 0,-34.68 0.57,-48.53 1.62,-39.66 6.37,-4.76 9.42,-39.69 2.37,-27.22 -5.31,-67.36 1.71,-92.03 9.73,-34.23 7.05,-53.2 7.05,-91.14 0,-58.75 6.8,-401.38 -4.47,-432.96l-4.63 -17.69c-0.59,-6.74 0.05,-19.56 0.13,-26.91 0.12,-12.35 1.43,-37.95 -0.17,-48.92 -3.54,-24.17 -8.78,-15.18 -9.04,-40.07 -0.65,-63.93 -9.2,-53.22 -8.77,-84.96l-5.66 -43.44c-6.04,-18.04 -0.59,-37.29 -8.92,-62.49 -5.5,-16.66 -3.06,-35.73 -8.92,-53.56 -1.59,-4.84 -1.05,2.74 -2.82,-10.59 -0.93,-7.07 0.23,-15 -0.3,-22.02 -1.97,-26.13 -2.76,-11.57 -5.79,-21 -6.75,-21.12 -9.42,-64.88 -16.53,-86.12l-25.58 -112.8c-7.26,-23.2 -6.46,-36.07 -19.22,-74.5 -0.36,-1.08 -0.86,-2.17 -1.19,-3.27l-18.78 -74.96c-1.92,-5.57 -4.14,-12.61 -5.58,-16.75l-34.43 -112.87c-0.36,-1.08 -0.79,-2.22 -1.16,-3.3l-34.02 -104.34c-0.45,-0.91 -1.1,-2.01 -1.53,-2.94l-52.03 -139.89c-0.45,-0.91 -1.1,-2 -1.53,-2.93l-65.32 -157.86c-1.4,-2.78 -2.63,-5.24 -4.47,-8.92 -0.45,-0.91 -1.03,-2.07 -1.49,-2.97 -0.08,-0.17 -2.89,-5.78 -2.97,-5.96l-53.55 -116.06c-0.46,-0.91 -1.03,-2.06 -1.5,-2.97l-50.59 -92.24c-0.45,-0.92 -1.03,-2.07 -1.49,-2.97 -0.45,-0.92 -1.03,-2.07 -1.49,-2.98l-228.59 -378.45c-0.54,-0.78 -1.25,-1.89 -1.77,-2.69l-38.94 -54.8c-0.78,-1.05 -3.18,-3.91 -3.93,-5l-56.35 -82.03c-7.24,-9.28 -15.07,-13.07 -22.28,-22.34l-8.23 -14.09c-3.99,-6.82 -0.09,-1.66 -5.19,-8.2l-51.49 -60.11c-3.48,-3.47 -6.99,-7.21 -10.12,-12.2 -3.63,-5.78 -1.62,-3.63 -4.62,-8.76 -11.78,-20.17 -32.6,-32.94 -44.64,-53.56l-16.26 -19.44c-4.74,-4.63 -8.85,-8.72 -13.46,-13.33l-91.48 -100.45c-17.89,-17.89 -31.25,-31.16 -49.14,-49.05 -9.5,-9.51 -15.92,-16.21 -24.62,-24.48 -11.79,-11.22 -17.24,-7.78 -17.76,-31.34 -12.28,-0.27 -15.81,-1.98 -24.9,-10.81 -31.25,-30.34 -97.12,-106.3 -127.21,-127.21l-17.15 -9.63c-1.08,-0.75 -3.96,-3.13 -4.96,-3.98 -13.91,-11.96 -25.25,-29.45 -40.38,-39.96l-11.51 -6.34c-20.04,-11.69 -33.29,-32.8 -53.56,-44.63l-30.39 -27.64c-9.94,-10.13 2.41,0.16 -9.09,-8.77 -12.67,-9.84 9.05,5.42 -5.32,-3.61l-88.38 -63.38c-7.61,-5.93 -10.46,-11.18 -17.69,-18.01 -0.12,-0.11 -9.82,-7.78 -9.97,-7.89 -6.77,-4.24 -4.92,-1.94 -11.65,-6.21 -11.02,-7 -11.7,-11.99 -21.32,-18.84l-8.53 -4.86c-0.85,-0.51 -2.06,-1.05 -2.91,-1.56l-276.92 -178.36c-0.84,-0.5 -1.96,-1.17 -2.76,-1.69l-23.85 -16.33c-0.83,-0.51 -2,-1.12 -2.82,-1.64l-143.08 -80.1c-0.92,-0.45 -2.07,-1.03 -2.97,-1.49 -0.92,-0.45 -2.07,-1.03 -2.98,-1.49l-166.63 -83.32c-0.92,-0.45 -2.07,-1.03 -2.97,-1.49l-58.58 -26.23c-1.13,-0.35 -2.34,-0.64 -3.45,-1.02l-103.68 -43.61c-1.13,-0.35 -2.34,-0.65 -3.45,-1.02l-6.49 -2.43c-0.98,-0.41 -2.12,-0.96 -3.07,-1.39l-49.48 -21.94c-1.12,-0.35 -2.34,-0.65 -3.44,-1.02l-74.57 -28.1c-1.37,-0.46 -5.18,-1.92 -6.55,-2.38 -3.44,-1.18 -5.36,-1.74 -10.11,-3.27 -1.12,-0.36 -2.33,-0.65 -3.45,-1.02l-13.22 -4.64c-1.06,-0.36 -2.21,-0.8 -3.3,-1.16 -1.09,-0.36 -2.27,-0.73 -3.37,-1.09l-81.66 -29.92c-1.09,-0.36 -2.24,-0.79 -3.31,-1.16l-33.16 -11.47c-1.13,-0.34 -2.24,-0.76 -3.41,-1.06l-115.2 -32.08c-1.36,-0.47 -5.18,-1.92 -6.54,-2.39 -1.08,-0.36 -2.22,-0.8 -3.3,-1.16l-45.78 -12.24c-1.23,-0.28 -2.37,-0.58 -3.56,-0.91 -1.15,-0.31 -2.24,-0.77 -3.35,-1.11 -0.11,-0.03 -6.35,-2.45 -6.44,-2.48l-35.71 -8.93c-1.12,-0.34 -2.2,-0.8 -3.35,-1.12l-274.16 -56.14c-19.43,-2.77 -9.2,-2.44 -13.85,-4 -4.66,-1.56 5.58,-1.23 -13.87,-4 -7.73,-1.1 -12.68,0.12 -20.79,-1.52 -18.05,-3.64 -8.01,-6.41 -27.68,-8.03 -15.57,-1.3 -36.85,1.69 -50.62,-2.94 -12.37,-4.16 8.23,-0.49 -12.92,-4.93 -12.33,-2.59 -26.75,0.58 -39.05,-1.13 -25.4,-3.52 -0.27,-6.09 -63.02,-8.39 -24.69,-0.9 -28.89,-9.64 -66.61,-9.27 -77.09,0.74 -51.32,-8.96 -133.95,-8.89 -17.14,0.02 -35.89,2.73 -52.68,-0.89 -45.33,-9.77 -28.03,-8.04 -85.7,-8.03l-879.31 0 0 1339.05z"/>
  <path class="fil1" d="M11350.8 5936.49l-8.92 0c-3.58,-8.88 -13.85,-11.77 -22.24,-17.95 -1.05,-0.77 -3.91,-3.17 -5,-3.92l-109.5 -60.12c-0.92,-0.46 -2.11,-0.97 -3.05,-1.41l-73.93 -46.58c-0.25,-0.17 -9.81,-7.83 -9.93,-7.92l-14.33 -7.99c-1.23,-0.6 -4.88,-2.2 -6.13,-2.8l-62.54 -44.59c-0.82,-0.53 -2.02,-1.09 -2.88,-1.58l-179.27 -146.58c-19.07,-14.8 -23.43,-14.42 -42.39,-33.49 -27.87,-28.03 -128.39,-120.77 -144.2,-145.94 -15.52,-24.75 -42.58,-43.55 -56.66,-68.31 -6.16,-10.84 -0.19,-3.54 -8.78,-13.53l-15.77 -15.48c-1.6,-1.54 -6.49,-6.14 -6.87,-6.52l-63.65 -83.64c-11.13,-17.53 -25.27,-31.25 -34.36,-50.44l-36.95 -56.79c-0.53,-0.82 -1.14,-1.99 -1.64,-2.82 -3.03,-4.95 -1.25,-3.11 -4.8,-8.59l-11.41 -15.37c-3.54,-5.49 -1.78,-3.66 -4.8,-8.59l-28.15 -47.73c-0.44,-0.93 -1,-2.09 -1.46,-3.02l-56.6 -104.08c0,0 -2.98,-5.96 -2.98,-5.96 -0.45,-0.91 -1.02,-2.06 -1.49,-2.97l-79.03 -166.47c-0.44,-0.92 -1.06,-2.03 -1.49,-2.97l-20.36 -59.99c-0.36,-1.08 -0.79,-2.21 -1.15,-3.31l-48.8 -147.59c-0.31,-1.16 -0.73,-2.28 -1.06,-3.4l-27.11 -88.95c-9.22,-25.97 -9.32,-53.82 -17.68,-80.51l-11.46 -51.03c-3.81,-12.09 -1.9,-5.36 -3.13,-19.18l-8.04 -32.14c-2.73,-12.81 0.37,-30.75 -0.73,-43.9 -3.07,-36.93 -4.33,0.24 -8.87,-31.3 -1.86,-12.84 1.41,-31.36 -0.43,-44.2 -3.81,-26.42 -9.2,-0.04 -8.7,-80.58l-3.12 -45.98c-0.35,-1.04 -0.99,-2.08 -1.36,-3.1 -12.23,-34.3 -4.39,-156.84 -4.46,-200.87 -0.02,-11.5 -1.29,-34.16 0.21,-44.41 4.27,-29.15 7.38,2.92 9.04,-35.61 1.13,-26.25 -4.88,-59.29 2.78,-82.02 7.35,-21.84 4.3,-55.73 11.65,-77.62 5.28,-15.76 2.32,-19.83 2.87,-37.3 0.42,-13.55 0.04,-9.03 3.33,-18.99l58.34 -245.17c0.46,-1.37 1.63,-5.46 2.1,-6.83l77.34 -221.71c2.7,-7.95 2.15,-9.48 5.06,-17.26l74.3 -148.88c1.05,-2.17 2.87,-5.81 4.43,-8.96l41.66 -83.32c0.45,-0.92 1.02,-2.07 1.48,-2.98l7.28 -15.05c0.62,-1.2 2.38,-4.71 3.07,-5.86l23.37 -34.66c0.77,-1.06 3.25,-3.84 4.03,-4.9 0.55,-0.76 1.38,-1.77 1.91,-2.55l11.93 -19.33c8.78,-11.97 -4.79,7.04 4.05,-4.86 4.6,-6.2 1.73,-1.58 5.47,-7.93l49.14 -80.29c13.3,-20.7 38.54,-45.67 51.98,-68.53l14.16 -17.09c0.89,-0.94 3.54,-3.55 4.35,-4.57 5.24,-6.59 1.18,-1.28 5.22,-8.17 1.08,-1.81 1.98,-4.06 3.05,-5.88l16.33 -19.38c5.54,-5.25 4.43,-3.43 9.07,-8.78 20.8,-24.05 4.18,-14.49 51.21,-60.38l23.16 -30.39c9.77,-15.56 57.75,-59.5 81.71,-83.44l85.15 -84.46c0.79,-0.55 1.94,-1.2 2.75,-1.72 0.83,-0.52 2.02,-1.08 2.88,-1.58l23.19 -16.99c3.08,-3.14 5.15,-5.39 6.56,-6.83 4.06,-4.13 5.9,-5.88 11.17,-11.16 5.23,-5.25 6.9,-6.97 11.06,-11.25l46.99 -37.82c12.32,-9.8 -8.77,5.29 5.29,-3.64l91.97 -68.7c22.87,-14.53 8.61,-11.16 47.91,-32.43 8.67,-4.69 4.13,-2.16 8.3,-5.09l134.54 -84.18c0.88,-0.47 2.03,-1.06 2.89,-1.57l56.46 -32.81c3.47,-1.74 6.39,-3.19 8.92,-4.46l166.17 -79.33c1.08,-0.36 2.27,-0.76 3.31,-1.15l37.88 -15.68c1.13,-0.35 2.34,-0.65 3.45,-1.02l27.38 -12.79c7.93,-3 9.16,-2.32 17.25,-5.06l54.32 -21.56c1.08,-0.36 2.22,-0.8 3.3,-1.16 1.1,-0.36 2.28,-0.73 3.37,-1.09l16.84 -5.48c1.06,-0.37 2.2,-0.83 3.27,-1.19l145.27 -42.21c0.11,-0.03 6.34,-2.45 6.44,-2.48l82.05 -20.61c5.95,-0.83 10.98,-0.09 16.92,-0.94l94.2 -17.38c37.56,-2.85 -1.78,-6.19 35.59,-9.06l54.57 -7.92c23.28,-5.01 47.9,2.72 70.53,-5.35 4.08,-1.46 -3.76,-0.65 9.82,-3.57 31.87,-6.87 73.55,-1 106.24,-0.89 15.78,0.05 36.48,1.6 50.45,-3.11l29.55 -6.15c20.39,-0.28 45.45,-3.48 65.41,2.19l12.67 5.19c45.2,12.86 105.79,-10.34 151.25,4.98l12.92 4.93c12.77,2.74 30.77,-0.37 43.9,0.73 37.18,3.09 -1.78,6.16 35.38,9.25 11.84,0.98 28.51,-1.61 40.12,0.05 24.08,3.46 13.79,6.73 35.92,8.72 22.13,1.98 11.93,5 36.19,8.46 7.72,1.1 12.68,-0.11 20.79,1.52 1.25,0.25 2.36,0.59 3.55,0.91l124.9 26.87c1.16,0.31 2.28,0.72 3.4,1.06l223.18 71.41c1.01,0.39 2.18,0.86 3.17,1.29l208.23 90.83c0.91,0.45 2.07,1.03 2.97,1.49l198.83 113.61c0.78,0.54 1.79,1.36 2.55,1.92l31.64 21.91c6.2,4.6 1.57,1.73 7.92,5.47l81.23 57.15c6.57,5.24 1.29,1.18 8.16,5.23l71.41 53.56c23.05,13.53 39.32,40.03 62.49,53.56 1.16,0.67 4.72,2.36 5.88,3.04 16.44,9.59 25.55,22.6 39.32,36.58 4.71,4.79 7.13,7.51 11.65,10.66 0.79,0.54 1.94,1.19 2.75,1.71l23.87 16.31c0.92,0.91 3.44,3.65 4.34,4.58l48.95 58.17c1.67,1.61 3.9,3.84 6.74,6.64l101.98 107.81c11,18.84 33.1,32.65 45.34,48.41l122.76 171.83c0.51,0.84 1.05,2.05 1.57,2.89l121.9 208.4c5.21,10.69 8.87,25.51 19.36,29.74l0 17.85c-12.26,4.44 -14.18,9.44 -24.57,20.08l-2954.82 2954.89c-14.44,14.44 -39.92,32.05 -46.89,51.31zm1166.56 -5936.49l27.39 0c17.22,1.59 22.67,8.41 42.12,9.25 53.06,2.29 60.11,-7.26 109.32,6.74 17.06,4.85 38.29,1.31 56.48,1.54 17.86,0.23 22.24,5.35 36.27,8.37 22.62,4.87 46.52,-3.05 67.43,3.99l77.62 11.64c12.87,4.26 26.11,1.13 40.6,4.04l81.27 16.93c18.23,0.51 22.5,5.13 36.63,7.99 5.69,1.15 6.77,0.77 12.4,1 30.33,1.21 70.26,11.89 99.47,21.05l390.39 109.52c3.44,1.18 5.36,1.74 10.12,3.27l40.17 13.39c1.06,0.37 2.2,0.83 3.27,1.19 5.46,1.87 14.78,4.68 20.23,6.55 1.37,0.46 5.18,1.92 6.55,2.38l74.57 28.1c1.1,0.37 2.32,0.66 3.44,1.02l51.58 19.84c1.11,0.35 2.29,0.71 3.38,1.06l9.87 3.52c1.08,0.37 2.22,0.8 3.31,1.16l41.03 17c0.92,0.45 2.07,1.03 2.97,1.49l20.71 10.54c1.22,0.61 4.64,2.46 5.9,3.03l71.52 31.14c0.9,0.46 2.01,1.09 2.92,1.54 1.22,0.62 4.64,2.46 5.9,3.04l23.51 7.73c9.69,3.27 1.39,0.11 9.56,3.83l11.77 6.08c0.9,0.46 2.05,1.04 2.95,1.51l32.72 16.39c10.99,5.49 -5.03,-2.52 5.95,2.97l11.9 5.96c0.92,0.45 2.07,1.02 2.98,1.49l23.8 11.9c1.22,0.6 4.73,2.36 5.96,2.97 0.91,0.45 2.07,1.03 2.97,1.49 0.92,0.45 2.07,1.03 2.97,1.49 0.92,0.45 2.07,1.03 2.97,1.49l11.9 5.96c0.92,0.45 2.07,1.02 2.98,1.49l41.66 20.82c6.05,3 -0.12,-0.02 5.97,2.96 0.92,0.45 2.07,1.02 2.99,1.47l47.5 28.37c0.93,0.45 2.09,1 3.02,1.46l11.97 5.88c0.93,0.45 2.09,1 3.02,1.46l6.05 2.87c1.21,0.62 4.71,2.38 5.86,3.07l15.27 11.51c0.77,0.55 1.83,1.31 2.64,1.83 0.8,0.53 1.93,1.2 2.76,1.7l29.91 14.72c0.92,0.45 2.1,0.98 3.03,1.44l162.04 101.3c5.62,4.24 3.02,2.86 7.58,5.81l29.5 15.13c4.61,2.99 1.9,1.54 7.58,5.81l49.05 35.76c0.85,0.5 2.06,1.04 2.91,1.55l154.87 112.94c16.84,9.88 28.51,26.29 44.63,35.7l27.38 21.72c14.36,14.94 32.08,22.84 53.53,44.67 15.1,15.37 28.73,19.3 62.49,53.56 12.35,12.54 27.92,18.22 40.47,30.95l98.75 93.18c6.81,3.96 1.66,0.11 8.2,5.19l13.42 13.36c32.98,33.8 69.8,64.55 100.56,100.3l13.6 22.11c0.75,1.08 3.12,3.96 3.98,4.96l20.24 19.93c11,10.97 19.09,19.15 29,29.03 32.72,32.71 39.98,49.37 62.47,71.43l86.34 101.13c3.98,6.82 0.08,1.64 5.19,8.2l57.29 72.14c10.58,18.08 28.72,32.07 32.69,38.73 0.51,0.85 1.04,2.07 1.54,2.93 0.51,0.85 1.05,2.06 1.56,2.91l3.41 5.51c0.15,0.22 4.22,5.06 5.94,7.45 0.56,0.76 1.38,1.77 1.92,2.54l156.78 227.09c4.23,5.62 2.86,3.03 5.81,7.58l6.17 11.69c0.44,0.93 0.95,2.12 1.39,3.06 0.45,0.94 0.96,2.13 1.4,3.07l52.16 86.21c0.45,0.94 0.96,2.13 1.4,3.06l26.91 44.52c1.55,3.19 4.33,8.78 5.88,11.98l18.9 30.19c0.55,0.77 1.31,1.83 1.83,2.64l28.39 56.41c0.45,0.91 1.03,2.07 1.49,2.97 2.05,4.09 1.33,2.67 2.97,5.96 0.45,0.91 1.03,2.06 1.49,2.97l2.97 5.95c0.61,1.22 2.37,4.73 2.98,5.96 0.45,0.91 1.02,2.06 1.49,2.97 0.45,0.91 1.03,2.07 1.49,2.97 0.45,0.92 1.03,2.07 1.49,2.97l5.95 11.9c0.46,0.92 1.03,2.07 1.49,2.98 0.46,0.91 1.03,2.06 1.5,2.97 1.7,3.41 4.24,8.49 5.95,11.9 0.61,1.22 2.36,4.72 2.97,5.95 0.45,0.92 1.03,2.07 1.49,2.97l7.44 14.88c0.45,0.92 1.03,2.07 1.49,2.98l7.44 14.88c0.45,0.91 1.02,2.06 1.49,2.97l7.43 14.88c0.45,0.92 1.03,2.07 1.49,2.97 0.61,1.22 2.37,4.73 2.98,5.96 0.45,0.91 1.02,2.06 1.49,2.97 0.45,0.91 1.03,2.07 1.49,2.97l2.97 5.96c0.45,0.91 1.03,2.06 1.49,2.97 2.05,4.09 1.33,2.66 2.97,5.95 0.46,0.92 1.03,2.07 1.49,2.98l2.98 5.95c0.45,0.91 1.03,2.07 1.49,2.97l19.34 38.69c0.46,0.91 1.03,2.07 1.5,2.97l73.96 193.84c17.11,49.79 21.74,81.01 33.43,118.33l3.73 9.66c2.86,11.11 0.92,13.9 2.4,24.38 4.53,31.78 2.32,-2.16 7.53,23.71 1.87,9.27 0.24,16.84 0.93,25.85 1.41,18.6 9.04,29.58 8.93,49.09 -0.15,28.4 6.42,18.31 9.1,48.93 2.37,27.19 -5.15,61.35 0.72,88.56 5.6,25.98 1.53,-6.35 7.15,19.62 1.63,7.53 1.63,44.26 0,51.79 -3.89,17.99 -8.53,12.09 -8.13,49.89 0.21,19.38 0.03,38.75 0.11,58.13 0.2,59.45 -4.6,37.47 -8.71,67.17l-1.13 39.04c-5.35,25.43 -3.56,-8.02 -7.73,23.51l-4.68 39.96c-0.35,1.05 -0.94,2.11 -1.28,3.18l-29.51 117.78c-1.41,7.11 -0.54,7.49 -2.58,15.28l-2.26 6.66c-0.35,1.08 -0.88,2.17 -1.23,3.23l-15.59 46.9c-0.36,1.08 -0.82,2.21 -1.19,3.28 -0.36,1.06 -0.82,2.2 -1.18,3.27l-4.18 13.69c-0.36,1.11 -0.66,2.33 -1.04,3.42l-54.6 128.41c-0.08,0.17 -2.9,5.78 -2.98,5.95l-18.8 39.22c-7.02,21.4 -14.74,27.2 -24.41,47 -0.45,0.92 -1.01,2.09 -1.46,3l-151.6 223.34c-20.15,32.1 -50.13,53.04 -74.66,81.57l-656 665.21c-604.04,603.75 -1213.53,1206.86 -1814.39,1814.45 -2.82,2.85 -5.03,5.08 -6.65,6.75 -8.34,8.55 -11.76,13.93 -22.38,17.78l0 1347.99c-307.98,0 -615.97,0 -923.95,0 -24.16,0 -51.3,4.22 -75,-0.89 -13.58,-2.93 -5.74,-2.13 -9.82,-3.58 -22.41,-7.99 -55.38,-4.54 -80.5,-4.29l-32.44 -3.27c-20.79,-7.01 -50.81,-3.57 -74.68,-5.66 -18.55,-1.61 -29.22,-9.52 -48.76,-9.26 -27.19,0.37 -33.36,-4.27 -50.16,-7.88 -15.17,-3.25 -36.62,1.48 -51.79,-1.77 -20.93,-4.48 -1.14,-1.03 -12.93,-4.93l-36.76 -3.41c-31.76,-4.2 2.17,-2.49 -23.54,-7.7 -9.26,-1.88 -16.85,-0.24 -25.86,-0.93l-48.62 -9.39c-23.25,-3.32 -11.8,-5.6 -49.58,-8.46l-273.46 -65.76c-1.06,-0.37 -2.2,-0.83 -3.27,-1.2l-44.64 -13.39c-10.71,-1.94 -4.95,-0.14 -14.75,-3.1l-217.28 -72.85c-0.99,-0.42 -2.16,-0.9 -3.17,-1.29 -1.04,-0.4 -2.24,-0.79 -3.3,-1.16 -1.1,-0.38 -2.31,-0.69 -3.43,-1.04l-43.74 -14.29c-1.06,-0.37 -2.2,-0.83 -3.28,-1.19l-106.36 -40.94c-1.08,-0.36 -2.27,-0.76 -3.31,-1.15 -1.03,-0.38 -2.19,-0.86 -3.18,-1.28 -0.98,-0.41 -2.12,-0.96 -3.07,-1.39 -0.94,-0.43 -2.06,-1.04 -2.97,-1.5 -0.92,-0.44 -2.02,-1.08 -2.93,-1.54l-50.34 -21.08c-1.33,-0.5 -4.99,-2.1 -6.25,-2.67 -0.94,-0.43 -2.06,-1.04 -2.97,-1.5l-77.2 -34.38c-3.5,-1.77 -8.38,-4.21 -11.89,-5.96l-23.81 -11.9c-0.92,-0.45 -2.07,-1.03 -2.97,-1.49 -1.22,-0.61 -4.73,-2.36 -5.96,-2.97 -0.91,-0.46 -2.06,-1.03 -2.97,-1.49 -0.91,-0.46 -2.07,-1.03 -2.97,-1.5l-5.96 -2.97c-0.91,-0.45 -2.06,-1.03 -2.97,-1.49 -1.22,-0.61 -4.72,-2.36 -5.95,-2.97 -0.92,-0.45 -2.07,-1.03 -2.97,-1.49l-5.96 -2.97c-0.91,-0.46 -2.07,-1.03 -2.97,-1.5l-20.83 -10.41c-0.91,-0.46 -2.06,-1.03 -2.97,-1.49 -0.91,-0.46 -2.07,-1.03 -2.97,-1.5l-11.9 -5.95c-0.92,-0.45 -2.07,-1.03 -2.97,-1.49 -0.92,-0.45 -2.07,-1.03 -2.97,-1.49l-38.69 -19.35c-5.61,-2.79 1.42,0.72 -5.96,-2.97 -1.22,-0.61 -4.72,-2.36 -5.95,-2.97l-133.78 -71.54c-0.8,-0.53 -1.87,-1.29 -2.64,-1.83l-101.77 -63.38c-3.3,-2.14 -8.22,-4.49 -11.69,-6.17l-9.16 -4.22c-29.35,-14.85 -63.93,-41.17 -91.56,-60.2l-98.76 -66.38c-0.85,-0.51 -2.08,-1.03 -2.92,-1.54l-62.64 -48.95c-0.83,-0.52 -2.03,-1.09 -2.88,-1.58 -2.5,-1.48 -3.38,-1.57 -5.88,-3.05l-118.93 -90.85c-0.82,-0.52 -1.97,-1.17 -2.75,-1.72l-78.32 -68.98c-4.73,-4.82 -8.77,-8.84 -14.4,-12.38 -30.26,-18.98 -48.53,-49.5 -77.59,-69.69l-17.15 -9.64c-6.45,-4.48 -9.73,-8.84 -15.99,-15.26 -5.9,-6.05 -7.42,-7.4 -13.39,-13.38l-216.47 -216.48c-1.44,-1.41 -3.69,-3.48 -6.83,-6.57l-10.66 -11.65c-0.55,-0.79 -1.19,-1.94 -1.71,-2.75l-6.21 -11.65c-9.97,-15.89 -26.91,-27.39 -39.48,-40.86 -0.13,-0.14 -7.76,-9.81 -7.88,-9.98 -3.63,-5.78 -1.63,-3.64 -4.63,-8.77l-11.68 -15.09c-1.03,-1.05 -7.69,-7.38 -9.1,-8.76l-37.97 -46.84c-5.44,-6.99 -2.84,-3.22 -6.51,-6.87l-20.97 -23.67c-9.23,-15.82 -24.94,-27.13 -34.12,-41.75l-26.78 -35.72c-0.53,-0.82 -1.09,-2.02 -1.58,-2.87l-94.89 -128.29c-0.56,-0.78 -1.2,-1.93 -1.73,-2.74l-126.04 -195.33c-1.75,-2.34 -5.92,-7.18 -6.03,-7.35l-36.25 -61.96c-0.45,-0.93 -1,-2.09 -1.46,-3.02l-80.34 -142.83c-0.44,-0.93 -1.01,-2.08 -1.47,-2.99 -0.45,-0.92 -1.02,-2.08 -1.48,-2.98l-19.34 -38.7c-0.45,-0.91 -1.03,-2.07 -1.49,-2.97 -0.45,-0.92 -1.03,-2.07 -1.49,-2.97l-5.96 -11.9c-0.45,-0.92 -1.03,-2.07 -1.49,-2.98 -0.45,-0.91 -1.03,-2.06 -1.49,-2.97l-5.95 -11.9c-0.46,-0.91 -1.03,-2.06 -1.5,-2.97 -0.45,-0.91 -1.02,-2.07 -1.49,-2.97 -0.45,-0.92 -1.03,-2.07 -1.49,-2.97l-59.51 -127.96c-0.45,-0.91 -1.03,-2.07 -1.49,-2.97l-44.73 -98.12c-0.41,-0.99 -0.89,-2.15 -1.28,-3.18 -0.39,-1.04 -0.78,-2.24 -1.15,-3.31l-22.91 -61.89c-0.39,-1.02 -0.88,-2.18 -1.29,-3.17l-7.64 -14.68c-0.44,-0.94 -1.01,-2.08 -1.42,-3.05 -0.42,-0.98 -0.9,-2.15 -1.29,-3.16l-13.97 -44.06c-0.38,-1.06 -0.77,-2.26 -1.17,-3.3l-34.71 -94.73c-0.36,-1.08 -0.8,-2.22 -1.16,-3.3l-34.55 -103.82c-0.36,-1.08 -0.79,-2.22 -1.16,-3.3l-4.64 -13.22c-0.36,-1.11 -0.65,-2.32 -1.01,-3.44l-23.57 -79.11c-0.34,-1.11 -0.8,-2.2 -1.11,-3.34 -0.33,-1.19 -0.62,-2.34 -0.91,-3.57 -1.21,-5.31 -0.79,-6.87 -1.72,-11.66 -1.64,-8.44 -0.43,-3.67 -2.59,-10.8l-54.99 -217.29c-0.35,-1.06 -0.96,-2.1 -1.3,-3.17 -4.15,-13.59 -1.77,-9.09 -3.26,-23.51 -2.35,-22.75 -14.49,-55.93 -17.69,-98.36l-9.41 -48.63c-4.51,-31.62 -2.19,1.94 -7.56,-23.68 -3.25,-15.51 -0.53,-39.11 -5.36,-52.67 -5.1,-14.33 -2.93,-37.27 -4.3,-53.73 -2.17,-26.04 -2.82,-11.35 -5.99,-20.79 -6.73,-20.06 0.28,-36.95 -6.2,-56.28l-6 -20.79c-2.32,-26.67 5.59,-57.48 -1.7,-83.1l-6.84 -19.94c-5.51,-37.7 8.91,-80.9 -3.32,-117.2 -0.35,-1.04 -0.99,-2.08 -1.36,-3.1 -0.36,-1.03 -1,-2.07 -1.36,-3.11 -1.49,-4.43 -1.04,2.07 -2.89,-10.49l-0.21 -1.63 0 -322.01c0.31,-10.84 0.61,-17.67 0.89,-18.96 5.45,-25.26 3.27,7.76 7.82,-23.42 3.96,-27.03 0.31,-57.46 0.21,-84.6 -0.19,-55.46 8.94,-49.46 9.26,-80.01 0.64,-62.9 7.84,-49.58 8.92,-75.88 0.83,-20.29 -3.23,-37.4 2.78,-55.25l8.93 -62.48c6.8,-20.29 2.53,-43.32 8.93,-62.49 8.75,-26.23 2.87,-32.63 7.71,-50.31 11.02,-40.18 3.32,-26.96 7.97,-50.05 5.32,-26.45 1.63,6.6 6.95,-19.83 2.24,-11.14 -0.01,-16.59 2.98,-28.26l57.16 -241.9c0.37,-1.06 0.85,-2.19 1.22,-3.26 1.42,-4.12 1.82,-6.04 3.22,-10.16 0.37,-1.08 0.76,-2.26 1.13,-3.33l7.96 -32.21c0.28,-1.23 0.58,-2.37 0.91,-3.56l8.86 -35.78c0.31,-1.16 0.72,-2.28 1.06,-3.41l2.43 -6.49c0.37,-1.06 0.85,-2.18 1.21,-3.25l17.93 -53.49c0.36,-1.1 0.73,-2.28 1.09,-3.37l4.41 -13.45c0.46,-1.36 2,-5.08 2.44,-6.49l31.99 -106.37c0.36,-1.09 0.8,-2.24 1.16,-3.31l32.37 -88.15c1.95,-6.22 0.59,-3.49 3.17,-10.22l11.65 -24.06c0.4,-1.03 0.79,-2.24 1.16,-3.3 0.38,-1.09 0.69,-2.31 1.04,-3.42l42.39 -109.38c0.42,-0.94 1.04,-2.06 1.49,-2.97l18.58 -39.44c2.37,-7.58 1.19,-6.2 4.04,-13.82l4.16 -9.22c1.75,-3.63 3.53,-6.72 4.6,-8.79l38.76 -77.3c0.46,-0.91 1.05,-2.05 1.52,-2.94l22.22 -53.67c0.46,-0.91 1.04,-2.06 1.51,-2.96l11.91 -23.79c0.45,-0.91 1.03,-2.07 1.49,-2.97l176.9 -309.63c0.45,-0.91 0.99,-2.1 1.48,-2.98 0.47,-0.89 1.06,-2.05 1.57,-2.89l32.9 -47.46c8.56,-14.5 9,-23.62 21.42,-36.59 23.71,-24.76 47.05,-64.93 66.03,-94.67l8.06 -14.26c0.76,-1.08 3.17,-3.92 4.03,-4.9l102.38 -129.72c0.55,-0.79 1.2,-1.94 1.71,-2.75l28.36 -38.59c10.26,-17.46 24.44,-27.94 37.37,-42.98 0.85,-0.99 3.23,-3.88 3.98,-4.96 23.96,-34.47 26.74,-30.96 49.59,-57.54l106.85 -125.26c4.64,-5.39 3.53,-3.52 8.99,-8.86l46.96 -46.77c20.87,-20.87 37.11,-37.2 57.98,-58.06 40.75,-40.75 48.2,-53.05 91.17,-82.91l29.39 -28.65c10.99,-10.99 19.08,-19.02 28.92,-29.1 4.24,-4.34 8.41,-9.22 13.81,-12.97l17.15 -9.63c6.45,-4.49 9.73,-8.84 15.98,-15.26 22.58,-23.15 46.95,-37.49 69.1,-60.34 0.52,-0.54 6.14,-6.39 6.58,-6.81l45.7 -34.65c0.83,-0.53 2.02,-1.09 2.88,-1.59 0.85,-0.5 2.08,-1.02 2.94,-1.52 0.86,-0.5 2.09,-1.02 2.94,-1.52 0.85,-0.5 2.06,-1.06 2.88,-1.58l41.75 -34.13c0.85,-0.5 2.06,-1.06 2.89,-1.58 0.81,-0.52 1.96,-1.17 2.75,-1.71 16.06,-11.18 12.3,-15.7 68.53,-51.97 4.46,-2.88 2.44,-1.82 7.7,-5.7l43.27 -32.61c0.82,-0.53 2.02,-1.09 2.87,-1.59 0.84,-0.51 2.07,-1.04 2.92,-1.54l8.42 -4.97c19.54,-13.38 40.56,-33.43 59.96,-42.7l142.67 -89.43c0.81,-0.52 1.91,-1.23 2.69,-1.77l280.25 -152.72c0.92,-0.45 2.07,-1.03 2.97,-1.49l62.49 -31.24c0.91,-0.45 2.07,-1.03 2.97,-1.49l50.41 -25.47c8.17,-3.71 -0.13,-0.55 9.57,-3.82l23.51 -7.74c0.17,-0.07 8.07,-4.18 8.83,-4.57l80.16 -35.88c0.92,-0.45 2.01,-1.09 2.94,-1.52l23.48 -7.77c1.08,-0.37 2.26,-0.76 3.31,-1.16l122.28 -47.33c0.92,-0.43 2.02,-1.08 2.93,-1.53l192.62 -66.26c1.06,-0.36 2.19,-0.84 3.26,-1.21l6.49 -2.44c1.12,-0.34 2.24,-0.76 3.4,-1.06l186.64 -49.92c1.08,-0.34 2.13,-0.93 3.19,-1.28l131.63 -29.05c1.18,-0.33 2.34,-0.62 3.56,-0.92l31.89 -8.27c12.34,-3.27 17.28,-0.96 29.37,-1.87 17.52,-1.33 64.07,-16.61 93.8,-17.8 25.49,-1.02 21.07,-8.21 49.03,-8.99 21.31,-0.59 18.09,-4.07 36.6,-8.03l64.71 -6.72c15.77,-5.3 37.4,-0.82 54.71,-3.31l16.7 -5.61c1.06,-0.36 2.13,-0.92 3.24,-1.23 27.72,-7.89 61.19,4.31 88.76,-4.98 1.04,-0.35 2.08,-0.99 3.1,-1.36l13.61 -4.25c32.53,-4.77 77.59,7.01 108.26,-3.32l375.16 -5.82z"/>
 </g>
</svg>
